# Blender v2.79 (sub 0) OBJ File: ''
# www.blender.org
mtllib cano.mtl
o cano_sensor
v 0.122119 -0.790624 2.173906
v -0.000000 -0.000000 2.173906
v -0.000000 -0.800000 2.173906
v -0.122119 -0.790624 2.173906
v 0.122119 -0.790624 -2.173908
v -0.000000 -0.800000 -2.173908
v -0.241377 -0.762717 2.173906
v -0.122119 -0.790624 -2.173908
v 0.241376 -0.762717 2.173906
v 0.241376 -0.762717 -2.173908
v -0.354976 -0.716933 2.173906
v -0.241377 -0.762717 -2.173908
v 0.354976 -0.716933 2.173906
v 0.354976 -0.716933 -2.173908
v -0.460255 -0.654344 2.173906
v -0.354976 -0.716933 -2.173908
v 0.460255 -0.654344 2.173906
v 0.460255 -0.654344 -2.173908
v -0.554746 -0.576417 2.173906
v -0.460255 -0.654344 -2.173908
v 0.554746 -0.576417 2.173906
v 0.554746 -0.576417 -2.173908
v -0.636234 -0.484980 2.173906
v -0.554746 -0.576417 -2.173908
v 0.636234 -0.484980 2.173906
v 0.636234 -0.484980 -2.173908
v -0.702810 -0.382176 2.173906
v -0.636234 -0.484980 -2.173908
v 0.702810 -0.382176 2.173906
v 0.702810 -0.382176 -2.173908
v -0.752912 -0.270414 2.173906
v -0.702810 -0.382176 -2.173908
v 0.752912 -0.270414 2.173906
v 0.752912 -0.270414 -2.173908
v -0.785367 -0.152313 2.173906
v -0.752912 -0.270414 -2.173908
v 0.785367 -0.152313 2.173906
v 0.785367 -0.152313 -2.173908
v -0.799413 -0.030642 2.173906
v -0.785367 -0.152313 -2.173908
v 0.799413 -0.030642 2.173906
v 0.799413 -0.030642 -2.173908
v -0.794722 0.091747 2.173906
v -0.799413 -0.030642 -2.173908
v 0.794722 0.091747 2.173906
v 0.794722 0.091747 -2.173908
v -0.730003 0.327255 2.173906
v -0.771403 0.211985 2.173906
v -0.508994 0.617191 2.173906
v -0.597243 0.532260 2.173906
v -0.671492 0.434854 2.173906
v -0.182283 0.778956 2.173906
v -0.299054 0.742002 2.173906
v -0.408815 0.687656 2.173906
v 0.182283 0.778956 2.173906
v 0.061239 0.797653 2.173906
v -0.061239 0.797653 2.173906
v 0.508994 0.617191 2.173906
v 0.408815 0.687656 2.173906
v 0.299054 0.742002 2.173906
v 0.730003 0.327255 2.173906
v 0.671492 0.434854 2.173906
v 0.597243 0.532260 2.173906
v 0.771403 0.211985 2.173906
v -0.794722 0.091747 -2.173908
v 0.771403 0.211985 -2.173908
v -0.771403 0.211985 -2.173908
v 0.730003 0.327255 -2.173908
v -0.730003 0.327255 -2.173908
v 0.671492 0.434854 -2.173908
v -0.671492 0.434854 -2.173908
v 0.597243 0.532260 -2.173908
v -0.597243 0.532260 -2.173908
v 0.508994 0.617191 -2.173908
v -0.508994 0.617191 -2.173908
v 0.408815 0.687656 -2.173908
v -0.408815 0.687656 -2.173908
v 0.299054 0.742002 -2.173908
v -0.299054 0.742002 -2.173908
v 0.182283 0.778956 -2.173908
v -0.182283 0.778956 -2.173908
v 0.061239 0.797653 -2.173908
v -0.061239 0.797653 -2.173908
v -0.000000 -0.000000 -2.173908
vn -0.0000 0.0000 1.0000
vn 0.0765 -0.9971 0.0000
vn -0.0765 -0.9971 0.0000
vn -0.2279 -0.9737 0.0000
vn 0.2279 -0.9737 0.0000
vn -0.3738 -0.9275 0.0000
vn 0.3738 -0.9275 0.0000
vn -0.5110 -0.8596 0.0000
vn 0.5110 -0.8596 0.0000
vn -0.6362 -0.7715 0.0000
vn 0.6362 -0.7715 0.0000
vn -0.7466 -0.6653 0.0000
vn 0.7466 -0.6653 0.0000
vn -0.8394 -0.5436 0.0000
vn 0.8394 -0.5436 0.0000
vn -0.9125 -0.4091 0.0000
vn 0.9125 -0.4091 0.0000
vn -0.9643 -0.2650 0.0000
vn 0.9643 -0.2650 0.0000
vn -0.9934 -0.1147 0.0000
vn 0.9934 -0.1147 0.0000
vn -0.9993 0.0383 0.0000
vn 0.9993 0.0383 0.0000
vn -0.9817 0.1904 0.0000
vn 0.9817 0.1904 0.0000
vn -0.9411 0.3380 0.0000
vn 0.9411 0.3380 0.0000
vn -0.8785 0.4777 0.0000
vn 0.8785 0.4777 0.0000
vn -0.7953 0.6062 0.0000
vn 0.7953 0.6062 0.0000
vn -0.6934 0.7205 0.0000
vn 0.6934 0.7205 0.0000
vn -0.5753 0.8179 0.0000
vn 0.5753 0.8179 0.0000
vn -0.4437 0.8962 0.0000
vn 0.4437 0.8962 0.0000
vn -0.3017 0.9534 0.0000
vn 0.3017 0.9534 0.0000
vn -0.1526 0.9883 0.0000
vn 0.1526 0.9883 0.0000
vn 0.0000 1.0000 0.0000
vn 0.0000 0.0000 -1.0000
usemtl None
s off
f 1//1 2//1 3//1
f 2//1 4//1 3//1
f 5//2 1//2 3//2
f 4//3 6//3 3//3
f 6//2 5//2 3//2
f 2//1 7//1 4//1
f 7//4 8//4 4//4
f 8//3 6//3 4//3
f 9//1 2//1 1//1
f 5//5 10//5 1//5
f 10//5 9//5 1//5
f 2//1 11//1 7//1
f 11//6 12//6 7//6
f 12//4 8//4 7//4
f 13//1 2//1 9//1
f 10//7 14//7 9//7
f 14//7 13//7 9//7
f 2//1 15//1 11//1
f 15//8 16//8 11//8
f 16//6 12//6 11//6
f 17//1 2//1 13//1
f 14//9 18//9 13//9
f 18//9 17//9 13//9
f 2//1 19//1 15//1
f 19//10 20//10 15//10
f 20//8 16//8 15//8
f 21//1 2//1 17//1
f 18//11 22//11 17//11
f 22//11 21//11 17//11
f 2//1 23//1 19//1
f 23//12 24//12 19//12
f 24//10 20//10 19//10
f 25//1 2//1 21//1
f 22//13 26//13 21//13
f 26//13 25//13 21//13
f 2//1 27//1 23//1
f 27//14 28//14 23//14
f 28//12 24//12 23//12
f 29//1 2//1 25//1
f 26//15 30//15 25//15
f 30//15 29//15 25//15
f 2//1 31//1 27//1
f 31//16 32//16 27//16
f 32//14 28//14 27//14
f 33//1 2//1 29//1
f 30//17 34//17 29//17
f 34//17 33//17 29//17
f 2//1 35//1 31//1
f 35//18 36//18 31//18
f 36//16 32//16 31//16
f 37//1 2//1 33//1
f 34//19 38//19 33//19
f 38//19 37//19 33//19
f 2//1 39//1 35//1
f 39//20 40//20 35//20
f 40//18 36//18 35//18
f 41//1 2//1 37//1
f 38//21 42//21 37//21
f 42//21 41//21 37//21
f 2//1 43//1 39//1
f 43//22 44//22 39//22
f 44//20 40//20 39//20
f 45//1 2//1 41//1
f 42//23 46//23 41//23
f 46//23 45//23 41//23
f 47//1 48//1 2//1
f 48//1 43//1 2//1
f 49//1 50//1 2//1
f 50//1 51//1 2//1
f 51//1 47//1 2//1
f 52//1 53//1 2//1
f 53//1 54//1 2//1
f 54//1 49//1 2//1
f 55//1 56//1 2//1
f 56//1 57//1 2//1
f 57//1 52//1 2//1
f 58//1 59//1 2//1
f 59//1 60//1 2//1
f 60//1 55//1 2//1
f 61//1 62//1 2//1
f 62//1 63//1 2//1
f 63//1 58//1 2//1
f 45//1 64//1 2//1
f 64//1 61//1 2//1
f 48//24 65//24 43//24
f 65//22 44//22 43//22
f 46//25 66//25 45//25
f 66//25 64//25 45//25
f 47//26 67//26 48//26
f 67//24 65//24 48//24
f 66//27 68//27 64//27
f 68//27 61//27 64//27
f 51//28 69//28 47//28
f 69//26 67//26 47//26
f 68//29 70//29 61//29
f 70//29 62//29 61//29
f 50//30 71//30 51//30
f 71//28 69//28 51//28
f 70//31 72//31 62//31
f 72//31 63//31 62//31
f 49//32 73//32 50//32
f 73//30 71//30 50//30
f 72//33 74//33 63//33
f 74//33 58//33 63//33
f 54//34 75//34 49//34
f 75//32 73//32 49//32
f 74//35 76//35 58//35
f 76//35 59//35 58//35
f 53//36 77//36 54//36
f 77//34 75//34 54//34
f 76//37 78//37 59//37
f 78//37 60//37 59//37
f 52//38 79//38 53//38
f 79//36 77//36 53//36
f 78//39 80//39 60//39
f 80//39 55//39 60//39
f 57//40 81//40 52//40
f 81//38 79//38 52//38
f 80//41 82//41 55//41
f 82//41 56//41 55//41
f 56//42 83//42 57//42
f 83//40 81//40 57//40
f 82//42 83//42 56//42
f 8//43 84//43 6//43
f 84//43 5//43 6//43
f 12//43 84//43 8//43
f 84//43 10//43 5//43
f 16//43 84//43 12//43
f 84//43 14//43 10//43
f 20//43 84//43 16//43
f 84//43 18//43 14//43
f 24//43 84//43 20//43
f 84//43 22//43 18//43
f 28//43 84//43 24//43
f 84//43 26//43 22//43
f 32//43 84//43 28//43
f 84//43 30//43 26//43
f 36//43 84//43 32//43
f 84//43 34//43 30//43
f 40//43 84//43 36//43
f 84//43 38//43 34//43
f 44//43 84//43 40//43
f 84//43 42//43 38//43
f 65//43 84//43 44//43
f 84//43 46//43 42//43
f 68//43 66//43 84//43
f 66//43 46//43 84//43
f 74//43 72//43 84//43
f 72//43 70//43 84//43
f 70//43 68//43 84//43
f 80//43 78//43 84//43
f 78//43 76//43 84//43
f 76//43 74//43 84//43
f 81//43 83//43 84//43
f 83//43 82//43 84//43
f 82//43 80//43 84//43
f 75//43 77//43 84//43
f 77//43 79//43 84//43
f 79//43 81//43 84//43
f 69//43 71//43 84//43
f 71//43 73//43 84//43
f 73//43 75//43 84//43
f 65//43 67//43 84//43
f 67//43 69//43 84//43
